Format : AVI
Format/Info : Audio Video Interleave
File size : 961 MiB
Duration : 1h 27mn
Overall bit rate : 1 540 Kbps
Writing application : VirtualDubMod 1.5.10.3 | www.virtualdub-fr.org || (build 2550/release)
Writing library : VirtualDub build 32842/release

Video
ID : 0
Format : MPEG-4 Visual
Format profile : Advanced Simple@L5
Format settings, BVOP : 2
Format settings, QPel : No
Format settings, GMC : No warppoints
Format settings, Matrix : Default (H.263)
Muxing mode : Packed bitstream
Codec ID : XVID
Codec ID/Hint : XviD
Duration : 1h 27mn
Bit rate : 1 402 Kbps
Width : 672 pixels
Height : 372 pixels
Display aspect ratio : 16:9
Frame rate : 25.000 fps
Color space : YUV
Chroma subsampling : 4:2:0
Bit depth : 8 bits
Scan type : Progressive
Compression mode : Lossy
Bits/(Pixel*Frame) : 0.224
Stream size : 875 MiB (91%)
Writing library : XviD 64

Audio
ID : 1
Format : MPEG Audio
Format version : Version 1
Format profile : Layer 3
Codec ID : 55
Codec ID/Hint : MP3
Duration : 1h 27mn
Bit rate mode : Constant
Bit rate : 128 Kbps
Channel(s) : 2 channels
Sampling rate : 44.1 KHz
Compression mode : Lossy
Stream size : 79.9 MiB (8%)
Alignment : Split accross interleaves
Interleave, duration : 40 ms (1.00 video frame)
Interleave, preload duration : 500 ms





 
http://www.imdb.com/title/tt1396218/






Users: 5.7/10 (1,930 votes) 32 reviews | Critics: 80 reviews Metascore: 53/100 (based on 29 reviews from Metacritic.com)

The life of a businessman begins to change after he inherits six penguins, and as he transforms his apartment into a winter wonderland, his professional side starts to unravel.
Director:
Mark Waters
Writers:
Sean Anders (screenplay), John Morris (screenplay), and 3 more credits »
Stars:
Jim Carrey, Carla Gugino and Angela Lansbury










 
http://img801.imageshack.us/img801/7362/vlcsnap2011070909h05m19.png






Source Used



VIDEO: ........... EPID.......... Thanks

AUDIO: ........... FOOKKNOWS .............Thanks


Few filters my way of doing stuff so

Enjoy





Greetz to IMAGiNE,Flawl3ss,DiLLoN,BDK,NOiR,TOXiC,THC,Ez,Rx,Boobyblue,TaRiQ786,BHRG
